<svg width="131" height="81" viewBox="0 0 131 81" fill="none" xmlns="http://www.w3.org/2000/svg">
<path d="M87 0H0V64.5L104.5 81H130.5V64.5L87 0Z" fill="#E5212E"/>
<rect x="2" y="2" width="84" height="61" fill="black"/>
<path d="M41.5714 40.132C41.5714 38.0245 41.0586 36.4275 40.1429 35.2296C39.1673 33.9537 37.7645 32.8811 35.8669 32.0432L35.8585 32.0391C33.936 31.1748 31.6308 30.4512 28.9277 29.8809H28.9222L27.6443 29.606V29.6046C26.0339 29.2631 24.6547 28.8549 23.5357 28.363C22.3841 27.8567 21.4114 27.1808 20.7107 26.2899L20.6953 26.269L20.68 26.2494C19.9914 25.3065 19.6825 24.1922 19.6825 22.9891C19.6825 21.164 20.3714 19.6122 21.7905 18.5095C23.2305 17.3827 25.2574 16.9456 27.6108 16.9456C29.212 16.9456 30.6686 17.181 31.9453 17.6961L31.9467 17.6948C33.2979 18.2017 34.3769 19.0604 35.1108 20.2701H35.1094C35.8839 21.4498 36.2059 22.9094 36.2059 24.5279V24.7469H40.5712V24.5279C40.5712 21.9597 39.9917 19.9526 38.9333 18.4132L38.9249 18.4007L38.9152 18.3867C37.8589 16.7723 36.3872 15.5581 34.4481 14.7455L34.4342 14.74L34.4216 14.7344C32.4859 13.8762 30.2249 13.4286 27.6108 13.4286C24.9882 13.4286 22.7663 13.8605 20.9102 14.68L20.899 14.6855C19.0908 15.466 17.7206 16.5787 16.7388 18.017C15.8137 19.3895 15.3173 21.0965 15.3172 23.2081C15.3172 25.3503 15.7737 26.9461 16.5631 28.1077C17.4359 29.3368 18.6895 30.3757 20.3856 31.2006C22.1936 32.0244 24.3821 32.7275 26.9676 33.296L28.2441 33.5709L28.2511 33.5723C29.9627 33.9484 31.4433 34.3692 32.6777 34.8418H32.6763C33.9653 35.2863 35.0682 35.9099 35.8655 36.7824C36.7905 37.751 37.2061 38.9866 37.2062 40.351C37.2062 42.3481 36.3592 44.0189 34.7718 45.2659L34.7704 45.2645C33.1813 46.5417 30.9305 47.0544 28.2776 47.0544C25.5876 47.0544 23.2776 46.4383 21.5059 45.0455L21.4975 45.0399L21.4891 45.0329C19.6312 43.5253 18.7938 41.328 18.7938 38.7034V38.5932H14.4286V38.7034C14.4286 41.2593 15.0205 43.357 16.139 45.0636C17.2784 46.8022 18.8615 48.1512 20.9325 49.1094C23.009 50.07 25.4468 50.5714 28.2776 50.5714V52C25.4651 52 22.9619 51.533 20.7679 50.5993L20.334 50.4068C18.1812 49.4109 16.467 48.0125 15.1931 46.2118L14.9448 45.8463C13.7295 43.992 13.083 41.7835 13.007 39.221L13 38.7034V37.1646H20.2224V38.7034L20.2307 39.1289C20.3153 41.2259 21.0349 42.8235 22.389 43.9224C23.8334 45.0579 25.7962 45.6258 28.2776 45.6258C30.7961 45.6258 32.6664 45.1318 33.8887 44.1429C35.1479 43.1538 35.7776 41.8895 35.7776 40.351C35.7775 39.289 35.4627 38.4279 34.8331 37.7687C34.3146 37.1919 33.569 36.7137 32.5968 36.3331L32.1671 36.1755C31.019 35.7359 29.6109 35.3337 27.9442 34.9674L26.6663 34.6925C23.9998 34.1065 21.7032 33.3729 19.7773 32.4939C17.8887 31.5782 16.4253 30.3875 15.3884 28.9224C14.3887 27.4573 13.8887 25.5521 13.8887 23.2081C13.8888 20.8643 14.4449 18.8686 15.5558 17.2204C16.6321 15.6409 18.0985 14.4143 19.9559 13.543L20.334 13.3742C22.4079 12.4586 24.8333 12 27.6108 12C30.3885 12 32.8524 12.4762 35.0006 13.4286C37.1854 14.3443 38.8887 15.7363 40.1108 17.6041C41.37 19.4356 41.9997 21.744 41.9997 24.5279V26.1755H34.7773V24.5279C34.7773 23.0627 34.4813 21.89 33.8887 21.0109C33.4026 20.2097 32.7182 19.6045 31.8351 19.1959L31.4445 19.0326C30.5048 18.6481 29.4091 18.432 28.1576 18.3839L27.6108 18.3742C25.3889 18.3742 23.7406 18.7944 22.6666 19.6367C21.6295 20.4426 21.111 21.5605 21.111 22.9891L21.1222 23.3393C21.1749 24.1406 21.4124 24.8299 21.8337 25.4068C22.3521 26.0659 23.111 26.615 24.1105 27.0544C25.1104 27.4939 26.3888 27.8785 27.9442 28.2081L29.2221 28.483C31.9999 29.0691 34.4075 29.8203 36.4445 30.736C38.5186 31.6518 40.1303 32.8615 41.2785 34.3633C42.4262 35.865 43 37.788 43 40.132L42.993 40.5686C42.9214 42.7339 42.3124 44.6576 41.1669 46.3401C39.9817 48.0984 38.2775 49.4914 36.0552 50.517L35.6409 50.6956C33.5445 51.5649 31.0901 52 28.2776 52V50.5714C31.1186 50.5714 33.4976 50.1034 35.4554 49.2196C37.4776 48.2863 38.9646 47.0521 39.9824 45.5421L39.9852 45.5366C41.033 43.9978 41.5714 42.2134 41.5714 40.132Z" fill="white"/>
<path d="M55.6934 33.733H58.7807L71.2988 49.5556H76.9503L61.8471 31.2235L76.4216 13.4444H71.0282L58.7807 28.9327H55.6934V13.4444H51.4286V49.5556H55.6934V33.733ZM57.1219 51H50V12H57.1219V27.4883H58.0929L70.3418 12H79.4601L63.7054 31.2221L80 51H70.611L58.0929 35.1774H57.1219V51Z" fill="white"/>
<path d="M23.2778 52C20.2778 52 17.6296 51.4689 15.3333 50.4066C13.037 49.3443 11.2407 47.8242 9.94444 45.8462C8.64815 43.8681 8 41.4872 8 38.7033V37.1648H15.2222V38.7033C15.2222 41.011 15.9444 42.7509 17.3889 43.9231C18.8333 45.0586 20.7963 45.6264 23.2778 45.6264C25.7963 45.6264 27.6667 45.1319 28.8889 44.1429C30.1482 43.1538 30.7778 41.8901 30.7778 40.3516C30.7778 39.2894 30.463 38.4286 29.8333 37.7692C29.2407 37.1099 28.3519 36.5788 27.1667 36.1758C26.0185 35.7363 24.6111 35.3333 22.9444 34.967L21.6667 34.6923C19 34.1062 16.7037 33.3736 14.7778 32.4945C12.8889 31.5788 11.4259 30.3883 10.3889 28.9231C9.38889 27.4579 8.88889 25.5531 8.88889 23.2088C8.88889 20.8645 9.44444 18.8681 10.5556 17.2198C11.7037 15.5348 13.2963 14.2527 15.3333 13.3736C17.4074 12.4579 19.8333 12 22.6111 12C25.3889 12 27.8519 12.4762 30 13.4286C32.1852 14.3443 33.8889 15.7363 35.1111 17.6044C36.3704 19.4359 37 21.7436 37 24.5275V26.1758H29.7778V24.5275C29.7778 23.0623 29.4815 21.8901 28.8889 21.011C28.3333 20.0952 27.5185 19.4359 26.4444 19.033C25.3704 18.5934 24.0926 18.3736 22.6111 18.3736C20.3889 18.3736 18.7407 18.7949 17.6667 19.6374C16.6296 20.4432 16.1111 21.5604 16.1111 22.989C16.1111 23.9414 16.3519 24.7473 16.8333 25.4066C17.3519 26.0659 18.1111 26.6154 19.1111 27.0549C20.1111 27.4945 21.3889 27.8791 22.9444 28.2088L24.2222 28.4835C27 29.0696 29.4074 29.8205 31.4444 30.7363C33.5185 31.652 35.1296 32.8608 36.2778 34.3626C37.4259 35.8645 38 37.7875 38 40.1319C38 42.4762 37.3889 44.5458 36.1667 46.3407C34.9815 48.0989 33.2778 49.4908 31.0556 50.5165C28.8704 51.5055 26.2778 52 23.2778 52Z" fill="white"/>
<path d="M43 51V12H50.1223V27.4886H51.0935L63.3417 12H72.4604L56.705 31.2214L73 51H63.6115L51.0935 35.1771H50.1223V51H43Z" fill="white"/>
</svg>
